<svg width="56" height="56" viewBox="0 0 56 56" fill="none" xmlns="http://www.w3.org/2000/svg">
<g id="Instagram">
<circle id="Ellipse" cx="27.9651" cy="28.0681" r="27.0862" stroke="#313131"/>
<path id="Vector" d="M28.6516 23.45C25.7143 23.45 23.3438 25.8206 23.3438 28.7579C23.3438 31.6952 25.7143 34.0658 28.6516 34.0658C31.5889 34.0658 33.9594 31.6952 33.9594 28.7579C33.9594 25.8206 31.5889 23.45 28.6516 23.45ZM28.6516 32.2077C26.7521 32.2077 25.2019 30.6575 25.2019 28.7579C25.2019 26.8584 26.7521 25.3082 28.6516 25.3082C30.5511 25.3082 32.1013 26.8584 32.1013 28.7579C32.1013 30.6575 30.5511 32.2077 28.6516 32.2077ZM34.1768 21.9956C33.491 21.9956 32.9372 22.5494 32.9372 23.2352C32.9372 23.921 33.491 24.4748 34.1768 24.4748C34.8626 24.4748 35.4164 23.9236 35.4164 23.2352C35.4166 23.0724 35.3847 22.9111 35.3225 22.7606C35.2602 22.6101 35.1689 22.4734 35.0538 22.3582C34.9386 22.2431 34.8019 22.1518 34.6514 22.0895C34.5009 22.0273 34.3396 21.9954 34.1768 21.9956ZM38.9981 28.7579C38.9981 27.3294 39.011 25.9138 38.9308 24.4878C38.8506 22.8315 38.4727 21.3615 37.2616 20.1504C36.0479 18.9366 34.5805 18.5614 32.9243 18.4811C31.4957 18.4009 30.0801 18.4139 28.6542 18.4139C27.2257 18.4139 25.8101 18.4009 24.3842 18.4811C22.7279 18.5614 21.258 18.9392 20.0468 20.1504C18.8331 21.3641 18.4579 22.8315 18.3776 24.4878C18.2974 25.9163 18.3103 27.332 18.3103 28.7579C18.3103 30.1839 18.2974 31.6021 18.3776 33.028C18.4579 34.6843 18.8357 36.1543 20.0468 37.3655C21.2606 38.5792 22.7279 38.9545 24.3842 39.0347C25.8127 39.1149 27.2283 39.102 28.6542 39.102C30.0827 39.102 31.4983 39.1149 32.9243 39.0347C34.5805 38.9545 36.0504 38.5766 37.2616 37.3655C38.4753 36.1517 38.8506 34.6843 38.9308 33.028C39.0136 31.6021 38.9981 30.1865 38.9981 28.7579ZM36.7207 34.8603C36.5318 35.3313 36.3041 35.6833 35.9392 36.0456C35.5743 36.4105 35.2249 36.6382 34.7539 36.8272C33.3927 37.368 30.1604 37.2464 28.6516 37.2464C27.1429 37.2464 23.908 37.368 22.5467 36.8297C22.0757 36.6408 21.7238 36.4131 21.3615 36.0482C20.9966 35.6833 20.7689 35.3339 20.5799 34.8629C20.0417 33.499 20.1633 30.2667 20.1633 28.7579C20.1633 27.2491 20.0417 24.0142 20.5799 22.6529C20.7689 22.1819 20.9966 21.83 21.3615 21.4676C21.7264 21.1053 22.0757 20.875 22.5467 20.6861C23.908 20.1478 27.1429 20.2694 28.6516 20.2694C30.1604 20.2694 33.3953 20.1478 34.7565 20.6861C35.2275 20.875 35.5794 21.1027 35.9418 21.4676C36.3066 21.8325 36.5344 22.1819 36.7233 22.6529C37.2616 24.0142 37.14 27.2491 37.14 28.7579C37.14 30.2667 37.2616 33.499 36.7207 34.8603Z" fill="#313131"/>
</g>
</svg>
