<svg width="57" height="56" viewBox="0 0 57 56" fill="none" xmlns="http://www.w3.org/2000/svg">
<g id="Linkedin">
<circle id="Ellipse " cx="28.4817" cy="28.0681" r="27.0862" stroke="#313131"/>
<g id="Group 260">
<path id="Vector" d="M19.0853 21.6902C20.7521 21.6902 22.1032 20.339 22.1032 18.6722C22.1032 17.0055 20.7521 15.6543 19.0853 15.6543C17.4186 15.6543 16.0674 17.0055 16.0674 18.6722C16.0674 20.339 17.4186 21.6902 19.0853 21.6902Z" fill="#313131"/>
<path id="Vector_2" d="M24.9541 23.9763V40.7197H30.1528V32.4397C30.1528 30.2549 30.5638 28.1391 33.2728 28.1391C35.9445 28.1391 35.9776 30.637 35.9776 32.5777V40.7211H41.179V31.5391C41.179 27.0287 40.2079 23.5625 34.9362 23.5625C32.4052 23.5625 30.7086 24.9515 30.0148 26.2659H29.9445V23.9763H24.9541ZM16.4824 23.9763H21.6893V40.7197H16.4824V23.9763Z" fill="#313131"/>
</g>
</g>
</svg>
