<svg width="151" height="27" viewBox="0 0 151 27" fill="none" xmlns="http://www.w3.org/2000/svg">
<g id="stars">
<path id="Star 1" d="M14.4068 0.791504L17.4583 9.59596H27.333L19.3442 15.0374L22.3956 23.8419L14.4068 18.4004L6.418 23.8419L9.46946 15.0374L1.48064 9.59596H11.3554L14.4068 0.791504Z" fill="#FBB040"/>
<path id="Star 2" d="M44.9869 0.791504L48.0384 9.59596H57.9131L49.9243 15.0374L52.9757 23.8419L44.9869 18.4004L36.9981 23.8419L40.0495 15.0374L32.0607 9.59596H41.9354L44.9869 0.791504Z" fill="#FBB040"/>
<path id="Star 3" d="M75.5699 0.791504L78.6214 9.59596H88.4961L80.5073 15.0374L83.5587 23.8419L75.5699 18.4004L67.5811 23.8419L70.6325 15.0374L62.6437 9.59596H72.5184L75.5699 0.791504Z" fill="#FBB040"/>
<path id="Star 4" d="M106.145 0.791504L109.197 9.59596H119.071L111.082 15.0374L114.134 23.8419L106.145 18.4004L98.1563 23.8419L101.208 15.0374L93.2189 9.59596H103.094L106.145 0.791504Z" fill="#FBB040"/>
<path id="Star 5" d="M136.728 0.791504L139.78 9.59596H149.654L141.665 15.0374L144.717 23.8419L136.728 18.4004L128.739 23.8419L131.791 15.0374L123.802 9.59596H133.677L136.728 0.791504Z" fill="#FBB040"/>
</g>
</svg>
